<svg width="142" height="32" viewBox="0 0 142 32" fill="none" xmlns="http://www.w3.org/2000/svg">
<path fill-rule="evenodd" clip-rule="evenodd" d="M10.67 4.68286H4.55566V5.88557H10.67V4.68286ZM10.67 6.36685H4.55566V7.56956H10.67V6.36685ZM10.67 8.05084H4.55566V9.25355H10.67V8.05084ZM10.67 11.2139H4.55566V12.176H10.67V11.2139ZM10.67 12.8621H4.55566V13.744H10.67V12.8621ZM10.67 14.6261H4.55566V15.428H10.67V14.6261ZM10.67 16.35H4.55566V17.0716H10.67V16.35ZM10.67 18.0739H4.55566V18.7155H10.67V18.0739ZM10.67 19.7978H4.55566V20.3592H10.67V19.7978ZM10.67 21.5218H4.55566V22.0028H10.67V21.5218ZM10.67 23.2457H4.55566V23.6465H10.67V23.2457ZM10.67 24.9696H4.55566V25.2904H10.67V24.9696ZM10.67 26.6935H4.55566V26.934H10.67V26.6935ZM17.7493 11.2147H13.8301V26.9346H17.7493V17.5852C17.9194 17.1645 18.1537 16.7757 18.443 16.4342C19.0073 15.7475 19.7067 15.1973 20.4932 14.8214C21.3806 14.3899 22.3492 14.1737 23.3272 14.1889C24.7145 14.1889 25.7094 14.5052 26.3119 15.1379C26.935 15.7494 27.2465 16.7197 27.2465 18.0488V26.9368H31.1658V17.3199C31.189 16.3363 31.025 15.3578 30.6834 14.4416C30.3913 13.6631 29.9261 12.9691 29.3267 12.4174C28.7289 11.8812 28.0308 11.4823 27.2772 11.2461C26.4459 10.9859 25.5821 10.858 24.7147 10.8665C23.7385 10.8504 22.7678 11.0219 21.8505 11.3726C21.0405 11.6883 20.294 12.1603 19.6496 12.7643C19.0677 13.3059 18.5783 13.9477 18.2025 14.6621C18.0215 15.0084 17.8702 15.3709 17.7503 15.7452L17.7493 11.2147ZM37.9297 26.2704C39.1967 26.9555 40.6048 27.3031 42.0299 27.2826C43.3565 27.2826 44.492 27.04 45.4366 26.5548C46.3319 26.0912 47.1153 25.4207 47.7279 24.5937C48.3006 23.7921 48.7389 22.8939 49.0239 21.9377L49.0541 21.8319V22.8865C49.0541 23.5613 49.0842 24.289 49.1445 25.0697C49.2047 25.8288 49.265 26.4508 49.3254 26.9358H52.9739V4.88918H49.0547V15.9732L49.0245 15.8646C48.7835 14.9155 48.3518 14.0315 47.7583 13.2719C47.147 12.4906 46.3594 11.8818 45.467 11.5006C44.5224 11.0789 43.3768 10.8681 42.0301 10.8681C40.5909 10.8403 39.169 11.1997 37.8997 11.9119C36.7138 12.5667 35.7228 13.5517 35.0355 14.7587C34.3521 15.9816 34.0104 17.4261 34.0104 19.092C33.9817 20.6 34.3466 22.0875 35.0657 23.3936C35.7576 24.6045 36.7467 25.5982 37.9297 26.271V26.2704ZM49.0547 19.0904C49.079 20.0211 48.8362 20.9379 48.3578 21.722C47.8793 22.5061 47.1872 23.1213 46.3714 23.4876C45.4029 23.9315 44.3534 24.1474 43.2968 24.1201C42.3375 24.1403 41.3871 23.9236 40.5223 23.4876C39.7692 23.095 39.1331 22.4933 38.6832 21.7479C38.2295 20.9448 37.9995 20.0243 38.0193 19.091C38.0193 17.5727 38.4818 16.3497 39.4066 15.4219C40.3315 14.4941 41.6279 14.0302 43.2957 14.0302C44.3399 14.0013 45.378 14.2062 46.3408 14.6312C47.1554 14.9884 47.8487 15.5946 48.3303 16.3709C48.8321 17.1781 49.085 18.1278 49.0547 19.091V19.0904ZM70.6139 26.9346H74.5332V11.2152H70.6145V19.9843C70.3952 20.497 70.1222 20.9825 69.8005 21.4317C69.2933 22.1727 68.6469 22.797 67.9012 23.2661C67.0465 23.7702 66.0775 24.0217 65.0974 23.9939C64.3699 24.0101 63.6454 23.8923 62.9568 23.6459C62.373 23.4308 61.8813 23.0047 61.5695 22.444C61.2681 21.854 61.1173 21.0527 61.1173 20.0402V11.2152H57.1977V20.7358C57.1977 22.0221 57.3886 23.087 57.7706 23.9305C58.1169 24.7274 58.6448 25.4226 59.3079 25.9548C59.9526 26.4405 60.6788 26.7946 61.4484 26.9986C62.2469 27.2088 63.0671 27.3151 63.8904 27.315C64.8209 27.3384 65.7456 27.1552 66.6039 26.7773C67.3242 26.4299 67.9781 25.9475 68.5333 25.3539C69.0291 24.8024 69.4548 24.1857 69.7995 23.5195C70.1107 22.9591 70.3635 22.3653 70.5533 21.7481C70.5746 21.6733 70.5947 21.6008 70.6137 21.5306L70.6139 26.9346ZM94.6237 24.2783C95.3777 23.259 95.8192 22.0237 95.8899 20.7356H92.3023C92.0113 21.79 91.3554 22.6924 90.4632 23.2659C89.5788 23.856 88.4332 24.151 87.0263 24.151C86.0477 24.1637 85.0757 23.9812 84.1621 23.6133C83.3416 23.2695 82.6309 22.6885 82.1126 21.9377C81.6102 21.1787 81.359 20.2403 81.359 19.1226C81.359 17.984 81.6102 17.0456 82.1126 16.3075C82.6327 15.5506 83.3423 14.9594 84.1628 14.5995C85.0717 14.2109 86.0456 14.0173 87.027 14.0302C88.3335 14.0302 89.449 14.3252 90.3736 14.9152C91.27 15.4697 91.9445 16.3463 92.2721 17.3826H95.8599C95.773 16.1024 95.3214 14.8792 94.5636 13.8716C93.7827 12.8585 92.7496 12.0922 91.5788 11.6576C90.3125 11.1305 88.795 10.8669 87.0263 10.8669C85.3248 10.8384 83.6346 11.1611 82.0517 11.8165C80.68 12.3877 79.489 13.3521 78.6148 14.5995C77.7907 15.8225 77.3786 17.3304 77.3786 19.1232C77.3786 20.916 77.7907 22.4239 78.6148 23.6469C79.4965 24.8792 80.686 25.8316 82.0517 26.3987C83.6394 27.0326 85.3277 27.3436 87.0263 27.315C88.795 27.315 90.3225 27.062 91.6088 26.5558C92.7956 26.1045 93.8395 25.316 94.6237 24.2783ZM116.227 21.7163H112.428C112.187 22.4332 111.644 23.0237 110.8 23.4876C109.976 23.9304 108.941 24.1518 107.695 24.1518C106.693 24.1766 105.697 23.9827 104.77 23.5824C104.014 23.2417 103.351 22.7091 102.841 22.0325C102.384 21.3936 102.094 20.6414 101.997 19.8494H116.288C116.388 17.8039 116.116 16.1275 115.474 14.8202C114.866 13.5077 113.842 12.4572 112.579 11.8478C111.272 11.1941 109.634 10.8673 107.665 10.8673C105.735 10.8673 104.047 11.1941 102.6 11.8478C101.247 12.4388 100.084 13.4273 99.2535 14.6945C98.4497 15.9175 98.0477 17.3935 98.0477 19.1226C98.0477 20.8517 98.4598 22.3278 99.2839 23.5507C100.153 24.811 101.345 25.7871 102.721 26.3658C104.188 26.9985 105.876 27.3148 107.786 27.3148C109.494 27.3148 110.941 27.0722 112.127 26.5871C113.206 26.1791 114.17 25.494 114.931 24.5943C115.618 23.7861 116.068 22.7866 116.227 21.7163ZM103.956 15.0108C104.861 14.3361 106.036 13.9987 107.484 13.9987C108.951 13.9987 110.107 14.315 110.951 14.9477C111.359 15.2187 111.702 15.5852 111.953 16.0185C112.204 16.4519 112.357 16.9403 112.398 17.4455H102.208C102.494 16.4405 103.114 15.5766 103.956 15.0108ZM122.399 26.271C123.666 26.9561 125.074 27.3036 126.499 27.2832C127.826 27.2832 128.961 27.0406 129.906 26.5554C130.801 26.0918 131.585 25.4213 132.197 24.5943C132.77 23.7924 133.209 22.8939 133.494 21.9373C133.504 21.9021 133.514 21.8668 133.524 21.8315V22.8861C133.524 23.5609 133.554 24.2886 133.614 25.0693C133.675 25.8284 133.735 26.4504 133.795 26.9354H137.443V4.88918H133.524V15.9732C133.514 15.9369 133.504 15.9007 133.494 15.8646C133.253 14.9155 132.821 14.0315 132.228 13.2719C131.616 12.4904 130.829 11.8813 129.937 11.4998C128.992 11.0782 127.846 10.8673 126.5 10.8673C125.061 10.8395 123.639 11.1989 122.369 11.9111C121.183 12.5659 120.192 13.5509 119.505 14.7579C118.822 15.9808 118.48 17.4253 118.48 19.0912C118.451 20.5992 118.816 22.0867 119.535 23.3928C120.227 24.604 121.216 25.598 122.399 26.271ZM133.524 19.091C133.548 20.0215 133.305 20.9383 132.827 21.7223C132.349 22.5063 131.657 23.1213 130.841 23.4876C129.872 23.9315 128.823 24.1474 127.766 24.1201C126.807 24.1403 125.857 23.9236 124.992 23.4876C124.239 23.095 123.602 22.4933 123.153 21.7479C122.699 20.9447 122.469 20.0243 122.489 19.091C122.489 17.5727 122.952 16.3497 123.877 15.4219C124.801 14.4941 126.098 14.0302 127.766 14.0302C128.81 14.0013 129.848 14.2062 130.811 14.6312C131.626 14.9883 132.319 15.5945 132.801 16.3709C133.302 17.1782 133.555 18.1279 133.524 19.091Z" fill="white"/>
</svg>
