<svg width="136" height="14" viewBox="0 0 136 14" fill="none" xmlns="http://www.w3.org/2000/svg">
<path fill-rule="evenodd" clip-rule="evenodd" d="M135.998 7.62802C135.998 6.28102 136.027 4.92286 135.887 3.5864C135.848 2.76446 135.398 1.98674 134.632 1.41916C133.865 0.851581 132.844 0.539094 131.785 0.548369C130.202 0.486381 126.833 0.525433 126.719 0.548369V13.8324C126.833 13.8485 130.202 13.8863 131.785 13.8324C132.842 13.8391 133.86 13.5273 134.626 12.9625C135.392 12.3977 135.846 11.624 135.893 10.8043C136.017 9.74987 136.001 8.68678 135.998 7.62802ZM133.223 10.0245C133.218 10.509 132.98 10.9744 132.556 11.3298C132.132 11.6852 131.552 11.9049 130.931 11.9461C130.452 11.9703 129.961 11.9461 129.452 11.9461V2.38383C130.169 2.3931 130.886 2.43803 131.596 2.51835C132.089 2.60058 132.526 2.81931 132.827 3.13369C133.127 3.44806 133.27 3.8366 133.228 4.22674C133.27 6.15581 133.277 8.09293 133.228 10.0245H133.223Z" fill="black"/>
<path fill-rule="evenodd" clip-rule="evenodd" d="M121.771 2.4018C120.994 0.949426 119.345 0.498153 117.39 0.521088C114.847 0.542784 113.012 1.74287 112.927 3.649C112.823 5.98099 112.829 8.31794 112.927 10.6537C112.996 12.4656 114.405 13.5956 116.776 13.8219C119.77 14.1076 121.99 13.0377 122.218 10.6605C122.325 9.52485 122.317 5.46339 122.23 4.56891C122.218 3.8327 122.063 3.10208 121.771 2.4018ZM119.537 10.5532C119.538 10.7545 119.485 10.9537 119.38 11.1378C119.276 11.3219 119.122 11.4867 118.93 11.6214C118.737 11.7561 118.51 11.8576 118.264 11.9192C118.017 11.9808 117.756 12.0012 117.499 11.979C117.241 11.9856 116.984 11.9508 116.744 11.8768C116.505 11.8027 116.287 11.691 116.106 11.5486C115.924 11.4061 115.783 11.2361 115.69 11.0492C115.597 10.8622 115.554 10.6623 115.566 10.4621C115.531 9.37236 115.566 8.28137 115.566 7.18976C115.566 6.11179 115.542 5.03444 115.566 3.95646C115.55 3.71961 115.607 3.4833 115.732 3.26699C115.858 3.05069 116.047 2.86058 116.285 2.71234C116.524 2.56409 116.804 2.46194 117.103 2.41431C117.402 2.36668 117.711 2.37493 118.006 2.43838C118.436 2.47919 118.831 2.64281 119.115 2.89745C119.399 3.1521 119.551 3.4796 119.541 3.81637C119.576 6.06282 119.583 8.31174 119.537 10.5532Z" fill="black"/>
<path fill-rule="evenodd" clip-rule="evenodd" d="M71.2407 1.57549C70.7304 1.1762 70.1087 0.873479 69.4237 0.690746C68.7386 0.508013 68.0087 0.450172 67.2903 0.521698C66.2186 0.539736 65.1956 0.872928 64.4277 1.45403C63.6599 2.03514 63.2044 2.82089 63.1531 3.65271C63.0542 6.0157 63.0997 8.3824 63.1531 10.7479C63.1618 11.1756 63.2838 11.5974 63.5114 11.987C63.739 12.3766 64.0673 12.7256 64.476 13.0123C64.9487 13.3259 65.4967 13.5636 66.0884 13.7116C66.68 13.8596 67.3036 13.915 67.923 13.8745C68.4752 13.9019 69.0288 13.8428 69.5509 13.7006C70.0731 13.5585 70.5531 13.3363 70.9625 13.0471C71.3719 12.758 71.7023 12.4079 71.934 12.0176C72.1658 11.6273 72.2942 11.2048 72.3115 10.7751C72.4049 9.59737 72.452 5.32763 72.4137 4.37611C72.4745 3.36278 72.0575 2.36699 71.2407 1.57549ZM69.6944 10.4528C69.7126 10.6887 69.6574 10.9245 69.5335 11.1404C69.4096 11.3562 69.2206 11.5457 68.9825 11.6927C68.7444 11.8398 68.4642 11.9402 68.1657 11.9854C67.8671 12.0306 67.5589 12.0192 67.2672 11.9523C66.8331 11.8967 66.4405 11.7192 66.164 11.4535C65.8874 11.1878 65.7462 10.8524 65.7671 10.5111C65.7344 8.30182 65.7288 6.09008 65.7671 3.87835C65.7577 3.67527 65.8038 3.47295 65.9026 3.28478C66.0013 3.0966 66.1503 2.92684 66.3398 2.78674C66.5292 2.64664 66.7548 2.53938 67.0016 2.47206C67.2484 2.40474 67.5108 2.37889 67.7714 2.39622C68.0273 2.38642 68.283 2.41868 68.5218 2.49089C68.7606 2.56309 68.9771 2.67362 69.1572 2.81526C69.3372 2.95689 69.4768 3.12644 69.5667 3.31283C69.6567 3.49922 69.695 3.69826 69.6792 3.89695C69.7135 5.00157 69.688 6.1062 69.688 7.21083C69.7088 8.29376 69.7295 9.37297 69.6952 10.4522L69.6944 10.4528Z" fill="black"/>
<path fill-rule="evenodd" clip-rule="evenodd" d="M76.89 0.534103C76.9107 4.6687 76.9019 9.69469 76.9035 13.8262C76.9035 13.9179 76.8796 13.8584 76.961 13.8597C77.7724 13.8745 78.7658 13.869 79.6316 13.869L79.6156 8.51134H83.4544L83.4647 6.4583H79.622V2.38879H84.8244V0.519226L76.89 0.534103Z" fill="black"/>
<path fill-rule="evenodd" clip-rule="evenodd" d="M108.376 6.60644H103.589V8.31049H105.843C105.923 8.84916 105.907 11.3237 105.907 11.8599C105.512 12.078 105.059 12.2235 104.581 12.2853C104.104 12.3472 103.614 12.3238 103.15 12.217C101.752 11.876 101.762 10.9196 101.697 9.83229C101.623 8.51629 101.586 7.74144 101.562 6.42295C101.545 5.60099 101.545 4.77965 101.602 3.96017C101.589 3.614 101.741 3.27636 102.03 3.01207C102.318 2.74778 102.721 2.57548 103.163 2.52825C103.414 2.48639 103.673 2.48575 103.924 2.52638C104.176 2.56701 104.413 2.648 104.622 2.76416C104.83 2.88032 105.005 3.02908 105.135 3.20089C105.266 3.3727 105.348 3.56376 105.378 3.76181C105.49 4.20378 105.524 4.65629 105.593 5.11563H108.376C108.329 4.62902 108.217 4.17279 108.137 3.72957C107.915 2.47556 107.27 1.38395 105.652 0.884323C104.801 0.573696 103.854 0.454748 102.92 0.540979C101.986 0.62721 101.101 0.915167 100.367 1.37217C99.9791 1.61271 99.6701 1.92114 99.4652 2.27223C99.0899 2.95179 98.8834 3.68033 98.8564 4.4195C98.7814 6.02251 98.7854 7.62986 98.8373 9.23287C98.8624 9.97536 98.9862 10.7138 99.2067 11.4365C99.3835 12.0908 99.8331 12.6814 100.486 13.1169C101.139 13.5524 101.958 13.8085 102.817 13.8454C106.913 14.2403 108.366 12.5238 108.366 12.5238L108.376 6.60644Z" fill="black"/>
<path fill-rule="evenodd" clip-rule="evenodd" d="M27.9732 0.511165C27.0508 4.2695 26.0534 8.3917 25.1135 12.15C24.973 12.7129 24.843 13.2776 24.7042 13.8665H27.3245C27.5639 12.8995 27.8032 11.9349 28.0426 10.9797H31.733C31.9811 11.9374 32.2269 12.8914 32.4766 13.8528H35.2509C34.07 9.38971 32.9027 4.95261 31.733 0.497528C30.6334 0.497528 27.9732 0.511165 27.9732 0.511165ZM28.4727 9.0463L29.81 3.28141H29.9002L31.2789 9.0463H28.4727Z" fill="black"/>
<path fill-rule="evenodd" clip-rule="evenodd" d="M12.4067 13.8529H20.2263V11.9573H15.1037V8.5256H18.8611V6.4707C17.7655 6.4707 16.1561 6.48 15.0462 6.48C15.0462 6.48 15.0654 2.6634 15.0829 2.40615H20.2207V0.522949H12.4012L12.4067 13.8529Z" fill="black"/>
<path fill-rule="evenodd" clip-rule="evenodd" d="M2.28882e-05 13.8516H2.6842V8.52622H6.53172L6.52454 6.47441H2.70175L2.70893 2.41296H7.94004V0.535339H2.28882e-05V13.8516Z" fill="black"/>
<path fill-rule="evenodd" clip-rule="evenodd" d="M46.5398 7.80467C47.2009 7.59184 47.7717 7.2391 48.1875 6.78661C48.6032 6.33412 48.847 5.80005 48.8912 5.24519C49.0228 4.59167 49.0228 3.92624 48.8912 3.27273C48.7005 1.57549 47.1047 0.519218 44.7796 0.519218C43.1583 0.519218 39.8326 0.503101 39.7161 0.519218V13.8708H42.3851V8.46174C42.784 8.46174 43.9578 8.44687 43.9578 8.44687C44.6152 10.0635 45.5719 12.2728 46.2573 13.877C46.2573 13.877 48.1819 13.8838 49.1218 13.8838C48.3072 11.9535 47.2962 9.57319 46.5486 7.80591L46.5398 7.80467ZM46.227 4.86768C46.2031 5.81052 45.2129 6.26055 43.929 6.3213C43.4455 6.34423 42.958 6.3213 42.4481 6.3213V2.19537C43.1645 2.16473 43.883 2.19006 44.5929 2.271C45.5935 2.42349 46.2055 2.71545 46.2246 3.58577C46.2318 3.85107 46.2318 4.65382 46.2246 4.8683L46.227 4.86768Z" fill="black"/>
</svg>
