<svg width="23" height="15" viewBox="0 0 23 15" fill="none" xmlns="http://www.w3.org/2000/svg">
<path d="M8.31935 1.88426C9.78554 0.425299 12.165 0.425299 13.6312 1.88426L22.2 10.4073L19.4781 13.1158C18.0119 14.5748 15.6325 14.5748 14.1663 13.1158L8.26227 7.2409C8.15881 7.138 8.04823 7.0421 7.93407 6.9534C7.44534 6.5309 6.89596 6.18307 6.29308 5.93458C5.76868 5.71804 5.22643 5.5796 4.66992 5.5157L8.31935 1.88426Z" fill="#29D6D6"/>
<path d="M0.488969 12.8987C0.681607 13.3531 0.959862 13.7648 1.30946 14.1127L6.61771 8.83062C6.26811 8.47922 5.85429 8.20232 5.39767 8.01422C4.94461 7.82602 4.45588 7.72662 3.96002 7.72662C3.46415 7.72662 2.97542 7.82252 2.5188 8.01062C2.06218 8.19522 1.64836 8.47212 1.29876 8.82002C0.952727 9.16782 0.674472 9.57962 0.485402 10.034C0.296331 10.4884 0.200012 10.9747 0.200012 11.4681C0.200012 11.9615 0.299899 12.4479 0.488969 12.8987Z" fill="#29D6D6"/>
</svg>
