<svg width="21" height="21" viewBox="0 0 21 21" fill="none" xmlns="http://www.w3.org/2000/svg">
<path d="M13.1511 10.7117C12.6111 10.7117 12.2911 10.252 11.9511 9.8923C11.7011 9.6226 11.4511 9.3528 11.2011 9.083L10.1611 7.9539L9.16111 9.093L7.88111 10.4119C7.68111 10.6117 7.43111 10.7117 7.17111 10.7117C6.91111 10.7117 6.66111 10.6217 6.46111 10.4219C6.06111 10.0322 6.06111 9.4027 6.45111 9.0031L10.1611 5.20616L13.8811 9.0031C14.2711 9.4027 14.2611 10.0322 13.8711 10.4219C13.6711 10.6117 13.4211 10.7117 13.1611 10.7117H13.1511ZM20.1711 9.6325C20.0911 8.9331 20.0211 8.2836 19.7511 7.45432C19.2811 6.0155 18.4511 4.6666 17.5811 3.72737C17.2411 3.36766 16.8711 3.01794 16.4811 2.7082C16.2411 2.51835 15.9911 2.32851 15.7411 2.15865C15.3211 1.87887 14.8811 1.63907 14.4211 1.41925C14.0711 1.25938 13.7211 1.1095 13.3611 0.9896C12.9311 0.84971 12.4911 0.7398 12.0511 0.65987C11.4211 0.55995 10.7911 0.5 10.1511 0.5C9.52111 0.5 8.89111 0.56994 8.27111 0.69984C7.98111 0.75979 7.63111 0.83972 7.34111 0.91966C6.78111 1.08952 6.29111 1.27936 5.76111 1.53915C5.32111 1.75897 4.89111 2.02875 4.49111 2.30852C4.09111 2.5883 3.71111 2.88805 3.35111 3.21778C2.99111 3.54751 2.66111 3.90722 2.36111 4.28691C2.06111 4.6666 1.78111 5.06627 1.53111 5.49592C1.38111 5.74572 1.13111 6.2553 0.931109 6.71493C0.811109 6.9947 0.711109 7.30445 0.681109 7.38438C0.581109 7.7741 0.461109 8.0938 0.381109 8.5434C0.291109 9.2029 0.161109 9.9923 0.211109 10.7416C0.271109 13.0797 1.07111 15.1381 2.55111 16.9166C2.84111 17.2963 3.44111 17.8958 4.08111 18.3854C4.20111 18.4953 5.19111 19.1847 5.83111 19.4745C6.09111 19.6144 6.80111 19.8842 6.84111 19.9042C6.96111 19.9441 7.11111 19.9741 7.36111 19.9241C7.52111 19.8942 7.73111 19.7743 7.85111 19.6544C7.97111 19.5245 8.02111 19.4246 8.06111 19.3446C8.16111 19.1348 8.19111 18.7251 8.02111 18.4653C7.89111 18.2055 7.63111 18.0457 7.48111 18.0057C5.96111 17.4462 4.73111 16.4969 3.76111 15.208C2.36111 13.3195 1.87111 10.8715 2.48111 8.4435C2.52111 8.2137 2.83111 7.31444 3.01111 7.02467C3.56111 5.79568 4.96111 4.09706 6.92111 3.20779C9.16111 2.20861 11.7811 2.24857 14.1111 3.51754C16.3411 4.75653 17.9011 7.07463 18.1611 9.6425C18.2611 10.4819 18.1911 11.3412 18.0511 12.0606C17.8211 13.3595 17.1711 14.6285 16.3811 15.5677C15.5811 16.5669 14.3811 17.4462 13.2211 17.8958C13.0511 17.9757 12.6011 18.1356 12.2511 18.2155C12.0611 18.2655 11.8311 18.3255 11.6711 18.3454C11.5111 18.3754 11.4111 18.3854 11.2111 18.4354V13.6093C11.4611 13.8791 11.7111 14.1489 11.9611 14.4186C12.2911 14.7783 12.6111 15.238 13.1611 15.238C13.4211 15.238 13.6711 15.148 13.8711 14.9482C14.2711 14.5585 14.2711 13.929 13.8811 13.5294L10.1611 9.7325L6.45111 13.5294C6.06111 13.929 6.07111 14.5585 6.46111 14.9482C6.66111 15.1381 6.91111 15.238 7.17111 15.238C7.43111 15.238 7.69111 15.1381 7.88111 14.9382L9.16111 13.6193V14.0789V16.5269V19.2447C9.10111 19.8742 9.39111 20.2539 9.78111 20.4237C9.96111 20.5137 10.1511 20.5037 10.2811 20.4937C10.2811 20.4937 10.9311 20.4737 11.2911 20.4337C11.4811 20.4137 11.8711 20.3638 12.0511 20.3238C12.1711 20.3038 12.6411 20.2039 12.7111 20.1839C12.8311 20.154 13.1511 20.064 13.4111 19.9841C13.4711 19.9641 13.6611 19.8942 13.6611 19.8942L13.8011 19.8442C13.8011 19.8442 14.0311 19.7543 14.1111 19.7243C14.5711 19.5245 15.2611 19.1748 15.8611 18.7651C16.3911 18.4054 16.9011 17.9757 17.3411 17.5261C18.1411 16.7168 18.7011 15.8275 18.9011 15.4678C19.1211 15.1081 19.3411 14.6485 19.4811 14.2788C19.5811 14.019 19.7011 13.7392 19.7711 13.4394C19.8411 13.2396 19.9011 12.9698 19.9511 12.76C20.1711 11.7308 20.2411 10.7117 20.1711 9.6725V9.6325Z" fill="#29D6D6"/>
</svg>
